<?xml version="1.0" encoding="UTF-8" standalone="no"?>
<svg
   xmlns:dc="http://purl.org/dc/elements/1.1/"
   xmlns:cc="http://creativecommons.org/ns#"
   xmlns:rdf="http://www.w3.org/1999/02/22-rdf-syntax-ns#"
   xmlns:svg="http://www.w3.org/2000/svg"
   xmlns="http://www.w3.org/2000/svg"
   xmlns:sodipodi="http://sodipodi.sourceforge.net/DTD/sodipodi-0.dtd"
   xmlns:inkscape="http://www.inkscape.org/namespaces/inkscape"
   id="svg8"
   version="1.1"
   viewBox="0 0 297 210"
   height="210mm"
   width="297mm"
   sodipodi:docname="drawing.svg"
   inkscape:version="0.92.4 (unknown)">
  <sodipodi:namedview
     pagecolor="#ffffff"
     bordercolor="#666666"
     borderopacity="1"
     objecttolerance="10"
     gridtolerance="10"
     guidetolerance="10"
     inkscape:pageopacity="0"
     inkscape:pageshadow="2"
     inkscape:window-width="1920"
     inkscape:window-height="1022"
     id="namedview10"
     showgrid="false"
     inkscape:zoom="0.22093154"
     inkscape:cx="561.25984"
     inkscape:cy="396.85039"
     inkscape:window-x="0"
     inkscape:window-y="30"
     inkscape:window-maximized="1"
     inkscape:current-layer="svg8" />
  <defs
     id="defs2" />
  <metadata
     id="metadata5">
    <rdf:RDF>
      <cc:Work
         rdf:about="">
        <dc:format>image/svg+xml</dc:format>
        <dc:type
           rdf:resource="http://purl.org/dc/dcmitype/StillImage" />
        <dc:title></dc:title>
      </cc:Work>
    </rdf:RDF>
  </metadata>
  <g
     transform="translate(0,-87)"
     id="layer1"
     inkscape:export-xdpi="96"
     inkscape:export-ydpi="96">
    <g
       transform="translate(-2.2678571,-3.0238095)"
       id="text302"
       style="font-style:normal;font-weight:normal;font-size:100.30065155px;line-height:1.25;font-family:sans-serif;letter-spacing:0px;word-spacing:0px;fill:#000000;fill-opacity:1;stroke:none;stroke-width:2.50751615;image-rendering:auto"
       aria-label="I2V">
      <path
         id="path310"
         style="font-style:normal;font-variant:normal;font-weight:normal;font-stretch:normal;font-size:100.2996521px;font-family:'Capture it';-inkscape-font-specification:'Capture it, Normal';font-variant-ligatures:normal;font-variant-caps:normal;font-variant-numeric:normal;font-feature-settings:normal;text-align:start;writing-mode:lr-tb;text-anchor:start;fill:#00ff00;stroke-width:2.50751615"
         d="m 85.46884,149.79156 h 14.98618 l 0.48974,0.48975 v 5.73001 l -0.48974,0.53871 h -0.489746 q 0,-0.63666 -1.273335,-1.5182 v -0.48975 h -0.244873 l -0.244872,0.24487 h -0.244872 l 1.518208,2.25283 -1.273336,0.97949 h 0.244872 l 2.252824,-1.22436 0.24487,0.24487 v 31.19672 h -1.224358 l -1.273336,-0.78359 q 0,1.02846 -0.979488,1.02846 0,1.46923 -0.489745,1.46923 h -1.273335 l -0.734617,-0.48974 -0.489744,0.78359 0.244872,0.24487 h 1.469233 v 0.48975 q 1.175387,0 2.007952,1.22436 l 0.489745,-0.73462 q -0.734617,0 -0.734617,-0.48974 v -1.51821 h 1.518208 l 0.489744,0.48974 v 1.27334 q -0.783591,0 -0.783591,0.48974 1.028467,0 1.763077,1.27334 v 2.98744 l -1.763077,1.95898 h 1.273337 v -0.97949 h 0.48974 v 10.97027 q -0.48974,1.02846 -1.224358,1.02846 l 0.489748,0.48975 0.73461,-0.24487 v 6.95437 h -0.48974 q 0,-1.22436 -0.489746,-1.22436 l -1.518208,-0.73462 v 0.24487 q 0,0.3918 1.518208,0.73462 l 0.244876,1.27333 v 0.24488 l -0.73462,0.73461 h -0.538719 l -1.469233,-1.27333 v 0.29384 l 1.224361,1.46924 -0.244873,0.73461 h 0.244873 q 1.518211,0 1.518211,-0.97948 h 0.73461 v 2.00795 l -0.48974,0.48974 h -1.518209 l -0.734617,-0.48974 -0.489744,0.48974 h -1.76308 q -0.489744,0 -0.489744,-0.73462 h -1.518208 q 0,0.73462 -0.489745,0.73462 h -1.22436 l -1.518208,-1.22436 h -0.244872 v 1.22436 h -2.987441 v -0.73462 h -1.518208 v 0.24488 h 0.538719 v 0.48974 H 85.46884 l -0.489745,-0.48974 v -0.24488 l 0.489745,-0.78359 v -1.22436 h -0.489745 v -2.25282 l 0.979489,-1.46923 q 0,-0.7836 -0.734616,-0.7836 l -0.244873,-0.24487 v -1.76308 l 0.489745,-0.48974 h 1.028463 l 0.734617,0.48974 h 0.734616 l -0.244872,-0.24487 -1.224361,-0.48974 -0.538719,-1.46924 H 85.46884 v 1.22436 h -0.489745 v -9.50104 l 0.489745,-0.48974 h 0.244872 l 1.518208,0.48974 v 0.29385 l 1.224361,-0.29385 h 2.007952 q 0,-0.48974 -0.979489,-0.48974 v -0.48975 h -1.76308 l -0.489744,-0.48974 0.244872,-1.02846 q -0.979489,0 -0.979489,-2.74257 l -0.293847,0.29384 H 85.46884 L 84.979095,194.946 v -1.95898 h 0.734617 l -0.244872,-0.29385 v -0.24487 l 0.244872,-0.73462 -0.734617,-1.22436 v -40.20801 z m 4.505648,0.73462 -0.489744,0.78359 h 0.244872 l 0.734617,-0.29385 z m 2.742569,2.25282 v 0.48975 l 0.244872,0.24487 h 0.489744 v -0.24487 L 92.961929,152.779 Z m 0,4.01591 v 0.24487 l 2.987441,1.22436 0.244872,0.24487 h 0.244872 l -0.244872,-1.22436 v -0.48974 l 0.489744,-0.78359 h -1.958977 z m 3.722057,1.7141 0.538719,0.53872 h 0.489745 v -0.53872 z m -10.235658,0.53872 v 0.48975 l 0.538719,0.48974 0.244872,-0.24487 v -0.24487 l -0.489744,-0.48975 z m 12.733355,19.68773 v 2.25282 h 0.538719 l 0.244872,-0.73462 -0.538719,-1.5182 z m 1.028463,5.97488 -0.489744,1.27333 v 0.24487 l 0.97949,-0.24487 -0.24487,-1.27333 z m -12.978227,1.5182 v 1.22437 h 0.489745 v -1.22437 z m 7.49309,1.22437 0.489744,0.53871 q 2.20385,-0.73461 2.497697,-1.5182 l -0.244873,-0.24488 q -1.224361,1.22437 -2.742568,1.22437 z m -4.505649,0 v 0.53871 l 0.489745,0.48975 v -1.02846 z m -4.505648,1.02846 1.273335,0.97949 h 0.734617 q 0,-0.63667 -2.007952,-0.97949 z m 5.974881,0.48974 v 0.97949 h 0.783592 v -0.24487 l -0.244873,-0.73462 z m 9.501039,-0.24487 v 2.4977 h -0.48974 v -0.48975 l -0.24487,-1.76308 0.24487,-0.24487 z m -8.472575,3.72206 v 0.24487 l 2.497696,1.76308 v -0.97949 q -1.273335,-0.88154 -1.273335,-2.25282 -0.391796,0 -0.734617,1.22436 z m -6.268729,0.24487 v 0.29385 q 0.783591,0 1.518208,0.97949 h 0.244872 l 0.734617,-0.73462 -0.734617,-1.27334 h -0.244872 q -0.832565,0.73462 -1.518208,0.73462 z m 4.260777,-0.73462 -0.244873,1.51821 0.734617,0.73462 v 0.48974 l -1.224361,0.24488 h -0.734617 l -0.538718,1.27333 v 0.24487 l 0.538718,0.48975 h 0.244873 l 1.224361,-0.24488 0.244872,1.22437 h 0.244872 v -1.46924 q 0.489744,0 0.489744,-0.97949 l 0.293847,-0.29384 h 0.244872 l 0.979489,0.29384 v -0.29384 q 0,-0.48975 -1.518208,-0.97949 l -0.244872,-1.22436 v -0.29385 h 0.538719 v -0.24487 q -0.783591,0 -0.783591,-0.48975 z m 8.472578,1.51821 v 0.48975 h 1.518209 v -0.73462 z m -2.742569,3.23231 -0.734616,-0.24487 v 0.97949 h 0.734616 q 0,-0.97949 1.76308,-1.46923 v -0.48975 H 97.71245 Z m -10.970274,-0.48974 q 1.273335,0.14692 1.273335,1.46923 -1.028463,0.53872 -1.028463,1.27334 h -0.489745 v -2.25283 l 0.244873,-0.24487 z m 11.998737,2.25282 v 0.48975 q 0.979489,-0.3918 0.979489,-0.73462 z m -5.485137,0.97949 h 0.734617 l 0.244872,-0.24487 h 0.244872 l -0.244872,-0.73462 z m 2.497697,0 v 0.24488 q 0,0.39179 1.714105,1.27333 v -0.53872 q -0.734617,0 -0.734617,-0.73461 l -0.244872,-0.24488 z m -3.281288,2.25283 v 0.24487 q 1.028463,0 1.028463,0.97949 h 0.489745 q 0,-1.12641 1.224361,-1.95898 -2.742569,0.24487 -2.742569,0.73462 z m 4.750521,0 v 0.24487 h 1.028463 l -0.293847,-0.24487 v -0.24487 z m -8.227706,0 q 0,0.97949 -0.489745,0.97949 l -0.783591,-0.24488 -0.244872,0.24488 v 0.78359 q 0.783591,0 0.783591,0.73461 h 0.244872 q 0,-1.27333 1.224361,-1.27333 h 0.783591 q -0.489744,-0.88154 -1.518207,-1.22436 z m 8.71745,3.47718 v 0.24488 h 0.244872 q 0.09795,-0.97949 2.007952,-0.97949 v -0.97949 q -2.252824,0.73461 -2.252824,1.7141 z m -6.709498,-0.73461 h 0.489744 l 0.489745,-0.48975 h -0.489745 z m 9.990786,0.48974 -0.293847,1.02846 h 0.783591 l 0.244876,-1.02846 z m -8.521553,2.4977 v 0.48974 q -0.734617,0 -0.734617,0.48975 h 0.734617 l 0.244872,-0.73462 v -0.24487 z m -2.497696,1.5182 h 0.783591 l 0.489744,-0.53871 h -0.734617 z m 2.742568,4.75053 v 0.24487 h 0.538719 q 0,-0.53872 0.734617,-0.53872 v -0.48975 z m 2.742569,-0.7836 v 0.24488 l 0.538719,0.78359 v 0.48974 q 0,0.73462 -1.028464,0.73462 v 0.24487 h 1.273336 l 0.244872,-1.22436 q -0.489744,-1.17539 -1.028463,-1.27334 z m -4.701546,1.02847 v 0.48974 h 0.244872 l 0.489744,-0.48974 z m 1.469233,2.49769 0.489744,0.48975 h 0.783591 v -0.48975 z m -2.252824,1.46924 0.538718,0.73461 0.734617,-0.24487 -0.244872,-0.97949 z m 7.737961,0 v 0.48974 h 0.783591 v -0.48974 z m 4.750518,-29.18877 v 2.4977 h -0.48974 v -0.48975 l -0.24487,-1.76308 0.24487,-0.24487 z m -15.720792,7.49309 q 1.273335,0.14692 1.273335,1.46923 -1.028463,0.53872 -1.028463,1.27334 h -0.489745 v -2.25283 l 0.244873,-0.24487 z" />
      <path
         id="path312"
         style="font-style:normal;font-variant:normal;font-weight:normal;font-stretch:normal;font-size:100.2996521px;font-family:'Capture it';-inkscape-font-specification:'Capture it, Normal';font-variant-ligatures:normal;font-variant-caps:normal;font-variant-numeric:normal;font-feature-settings:normal;text-align:start;writing-mode:lr-tb;text-anchor:start;stroke-width:2.50751615"
         d="m 132.19046,176.9234 q -0.14693,-0.0979 -0.29385,-0.14692 -0.3918,0.1959 -0.88154,0.29384 h 0.48974 l 0.0979,0.049 q 0.3918,-0.0979 0.5877,-0.1959 z m -7.64002,-22.77311 -0.48974,-0.48975 h -0.24487 q 0,0.48975 0.73461,0.48975 z m 11.01925,20.47131 -0.0979,-2.20385 h -0.14692 l -0.93051,1.02847 0.24487,0.24487 v 0.48974 l -0.97949,0.29385 v 0.48974 l 0.24487,-0.24487 0.29385,0.24487 0.48974,-0.049 0.24487,-0.24487 h 0.24488 l 0.24487,0.24487 q 0.049,-0.0979 0.14692,-0.29385 z m -15.86772,13.6149 h 0.53872 l -0.049,-0.78359 q -0.53872,0 -0.48975,0.78359 z m -1.46923,3.77103 -0.098,-0.48975 h -0.24487 v 0.5877 z m -0.34282,0.14692 v 0.34282 h 0.48974 v -0.049 h -0.049 z m 0.53872,1.32231 0.97949,-0.049 v -0.48975 l -0.48975,0.049 z m 2.54667,-3.42821 q -0.1959,0.14692 -0.14692,0.58769 l 0.29384,1.27334 -0.68564,0.78359 0.24487,0.1959 h 0.24487 l 0.93052,-1.02846 q -0.53872,-0.68565 -0.58769,-1.95898 -0.14693,0 -0.24488,0.0979 h 0.049 q -0.049,0 -0.098,0.049 z m 0.58769,-6.1218 0.93052,-0.53872 v -0.24487 l -0.97949,0.049 z m 2.84052,2.35077 h 0.48974 l -0.29384,-1.22436 -0.049,-0.78359 -0.48974,0.049 0.049,0.78359 z m 1.32231,-4.55462 1.22436,-0.049 v -0.73461 h -0.24487 q -0.97949,0.44077 -0.97949,0.78359 z m 0.88154,3.77103 0.24487,-0.049 2.20385,-0.78359 v -0.29384 q -1.02846,0 -1.32231,-1.42026 l -0.73461,0.24487 0.049,1.22436 -0.44077,0.83257 z m 0.73462,6.17078 0.44077,-0.48975 v -0.48974 l -0.73462,0.24487 z m 0,-13.2231 h 0.24487 q -0.049,-0.68564 1.66513,-1.56718 l 0.24487,-0.24488 v -0.24487 l -0.24487,-0.24487 -0.24487,0.049 q -1.51821,0.5877 -1.71411,2.00796 z m 0.24487,-5.97488 0.53872,-0.049 -0.049,-1.22436 -0.53872,0.049 z m 1.95898,11.60694 q 0.97949,-0.34282 0.93051,-0.73462 l -0.24487,-0.24487 h -0.73462 l 0.049,0.48975 -0.24488,0.24487 z m 0.53872,-4.94642 0.73461,-0.58769 2.25283,0.68564 v -0.24487 l -0.83257,-2.93847 q -2.20385,1.22436 -2.15487,3.08539 z m -0.14693,-4.0159 h 0.24487 l 0.48975,-0.53872 h -0.24487 z m 0.78359,7.93386 2.00795,0.19589 0.24488,-0.24487 -0.049,-0.97949 -2.00795,-0.48974 v 0.29385 z m 1.46924,-7.78694 1.22436,-0.29385 v -0.24487 l -1.22436,0.049 z m 0.63666,-2.74257 0.73462,-0.049 v -0.48975 l -1.22436,0.049 z m -13.17412,14.20259 -0.48974,0.48974 v 0.24488 q 0.48974,0 0.48974,-0.73462 z m 10.13771,-5.77898 v 0.39179 q 0.29385,0 0.68564,0.0979 v -0.14692 q -0.44077,-0.14693 -0.68564,-0.34282 z m -4.99539,10.28463 v -0.1959 h -0.24488 l -0.0979,0.049 z m -3.77104,-1.22436 q -0.19589,-0.049 -0.29384,-0.0979 l -0.44077,0.14692 v 0.14692 h 0.48974 q 0,-0.0979 0.1959,-0.14692 0,-0.049 0.049,-0.049 z m 14.98618,-19.49183 h 2.25283 v -0.14692 l -1.02847,-0.97949 -0.24487,0.24487 h -0.48974 l -0.24488,-1.02846 h -0.48974 l 0.24487,0.24487 -0.24487,0.29385 v 0.48974 l 0.24487,0.24487 v 0.24487 l -0.24487,0.24488 q 0.0979,0.049 0.24487,0.14692 z m -12.97822,-16.35746 v 0.53872 h 0.78359 q 0,-0.53872 -0.78359,-0.53872 z m -13.17413,-3.96693 v 1.27333 l 1.22436,-0.29384 z m 8.96232,2.00795 v 0.48974 l 0.97949,-0.24487 v -0.24487 z m -0.97948,0.48974 v 0.97949 h 0.48974 v -0.48974 z m -12.24361,1.22436 v 0.24488 l 0.53871,0.53872 0.73462,-0.24488 v -0.29384 l -0.97949,-0.24488 z m 12.97822,0.7836 -0.24487,0.24487 v 0.24487 l 0.97949,0.97949 q 0.73462,-0.48975 2.00795,-0.48975 0,-0.48974 -0.73462,-0.48974 l -1.27333,0.24487 z m 8.71745,1.46923 0.48975,0.97949 h 0.24487 v -0.97949 z m -2.49769,2.74257 v 0.48974 l 1.22436,-0.24487 h 0.78359 v -0.48974 h -0.78359 z m 4.50564,1.51821 v 1.22436 h 0.73462 v -0.24488 q -0.39179,-0.97948 -0.73462,-0.97948 z m -3.77103,0.73461 v 0.24487 l 0.73462,2.25283 h 0.29385 q 0,-1.02846 1.46923,-1.27334 l -0.24487,-0.73461 h -1.22436 l -0.7836,-0.48975 z m -6.21975,0.48975 0.48974,0.48974 h 0.48975 l -0.24487,-0.73462 z m 13.2231,0.48974 v 0.24487 q 0.68564,0 1.46923,1.76308 l 0.24487,0.24487 h 0.24487 l 0.24488,-0.24487 v -0.24487 q -0.53872,-1.51821 -1.95898,-1.76308 z m 5.97488,0.48975 v 0.53871 h 1.22436 v -0.53871 z m -11.70489,1.5182 q 0.34282,0.97949 0.73461,0.97949 l 0.24488,-0.24487 v -0.73462 h -0.48975 l -0.24487,-0.24487 z m 4.94642,0.73462 0.53871,0.73462 -0.78359,2.25282 h 0.24488 l 2.98744,-0.73462 q -1.12642,-2.25282 -2.98744,-2.25282 z m 4.0159,0 v 0.24487 l 0.48974,0.48975 v -0.24488 z m -7.98283,0.48974 -0.24488,2.00796 0.24488,0.24487 h 0.97949 l 0.53871,-2.00795 h -0.29384 z m 7.73796,1.76308 0.24487,1.22436 h 0.24487 v -1.22436 z m 2.74257,0.73462 v 0.73462 h 0.48974 v -1.22436 z m -11.70489,2.74257 v 0.48974 l 0.97948,-0.48974 v -0.24487 h -0.24487 z m 3.72205,6.85642 v -0.24487 h -0.53872 l 0.44077,0.24487 z m -4.50565,6.41565 q 0.0979,0.1959 0.1959,0.34282 l 0.29385,0.049 v -0.14693 q 0,-0.0979 -0.48975,-0.24487 z m -9.79488,11.99874 -0.44077,0.39179 h 0.24487 l 0.63667,-0.14692 z m -1.32231,2.54667 v 0.24487 l 0.24487,0.0979 h 0.44077 v -0.0979 l -0.44077,-0.24487 z m -3.08539,4.84847 v 0.0979 l 2.69359,0.58769 0.1959,0.14693 h 0.1959 l -0.1959,-0.5877 v -0.24487 l 0.44077,-0.3918 h -1.76308 z m 5.48513,-9.06027 0.44077,0.29385 h 0.44077 v -0.29385 z m 1.51821,-4.01591 v 0.24488 h 0.1959 l 0.44077,-0.24488 z m 1.27334,1.22437 0.44077,0.19589 h 0.68564 v -0.19589 z m -1.46924,1.02846 0.63667,-0.0979 -0.24487,-0.48974 -0.53872,0.14692 z m -0.48974,-0.34282 h -0.049 l 0.049,0.049 z m 2.35077,-10.03976 0.53872,-0.78359 -0.34282,-0.0979 4.16283,-7.1013 q 0.48974,-0.63666 0.78359,-1.32231 0.63667,-1.46923 0.63667,-3.37923 l 0.24487,-1.76308 h -0.48975 v -2.00795 h -0.48974 l 0.24487,0.24487 v 0.29384 l -0.24487,0.24488 h -0.24487 q -2.25283,-3.23232 -7.19924,-3.23232 h -12.97823 l -0.48975,-0.53871 v -12.19464 l 0.48975,-0.48974 h 14.44746 q 16.94515,0 21.40183,11.94976 1.02846,2.39975 1.02846,5.48514 l -0.73461,0.24487 v 0.24487 q 0.73461,0 0.73461,0.73462 -0.0979,1.07743 -0.1959,1.91 h 0.29385 l -0.44077,0.63667 q -0.049,0.34282 -0.14692,0.63667 l -0.83257,1.17538 -0.049,-0.34282 -0.53872,0.83257 0.24487,0.049 -0.93051,1.27334 -0.098,-0.14693 -0.53872,0.73462 0.14692,0.0979 -0.24487,0.34282 q 0.0979,-0.1959 0.0979,-0.3918 l -19.49183,30.16826 h -14.79028 l 13.6149,-19.98157 0.049,-0.049 2.00795,-3.47718 z m -15.28002,25.17286 h 6.7095 l 0.58769,0.48974 -0.58769,0.48975 v 0.78359 h 0.29384 q 0.83257,0 0.83257,-1.76308 h 4.75052 l 0.24487,0.24487 0.34282,-0.24487 h 3.62411 q 0.14692,1.22436 0.83257,1.22436 l 0.29384,-0.24487 h 0.24487 l -0.24487,-0.24487 v -0.73462 h 6.95437 v 0.73462 l 0.29385,-0.24488 0.24487,0.24488 h 0.5877 v -0.24488 l -0.29385,-0.24487 v -0.24487 h 10.08873 l 0.5877,0.48974 v 11.94977 l -0.5877,0.48974 h -7.29719 v -0.73462 q -0.53872,0 -0.53872,0.73462 h -15.96566 l -0.83257,-0.48974 -0.78359,0.48974 h -10.38258 l -0.5877,-0.48974 v -1.95898 l 0.29385,-0.29385 -0.29385,-0.24487 v -7.68899 h 0.5877 v -0.73461 h -0.5877 v -1.02847 z m 1.95898,3.23231 0.83256,0.48975 0.24487,-0.73462 -0.24487,-0.24487 h -0.29385 z m 23.21388,0.24487 q 0,1.02847 -1.66513,1.02847 l -0.29385,-0.29385 -0.24487,1.02846 h 1.66513 l 0.78359,-1.5182 v -0.24488 z m -13.71284,0.73462 -0.29385,1.02846 h 0.58769 l 0.53872,-0.48974 z m -6.17078,1.02846 v 0.97949 l 0.53872,-0.48974 v -0.48975 z m 16.50438,1.22437 h 0.83257 v -0.73462 z m -20.12849,0.48974 -0.29385,0.24487 v 0.29385 l 0.29385,0.24487 h 0.29385 l 0.24487,-0.24487 0.83256,0.97949 v 1.46923 h 0.34282 l 0.83257,-0.24487 v -0.24487 q -0.78359,-1.61616 -2.54667,-2.4977 z m 9.25617,2.74257 v 0.48974 h 0.53872 l 0.53872,-0.48974 z m -8.42361,0.48974 v 0.53872 h 0.53872 l 0.63667,-0.53872 z m 15.13311,0 -0.53872,1.51821 h 0.24487 l 0.83256,-0.73462 v -0.78359 z m -13.17413,1.02847 v 0.97948 h 0.29385 l 0.29384,-0.73461 -0.29384,-0.24487 z m 17.09208,0.48974 v 0.48974 l 0.53872,0.48975 v -0.97949 z" />
      <path
         id="path314"
         style="font-style:normal;font-variant:normal;font-weight:normal;font-stretch:normal;font-size:100.2996521px;font-family:'Capture it';-inkscape-font-specification:'Capture it, Normal';font-variant-ligatures:normal;font-variant-caps:normal;font-variant-numeric:normal;font-feature-settings:normal;text-align:start;writing-mode:lr-tb;text-anchor:start;stroke-width:2.50751615"
         d="m 157.95101,167.07954 -0.73462,-0.29385 h -0.24487 l 0.48975,0.78359 z m -1.71411,-4.75052 0.48975,-0.48975 v -0.24487 h -0.48975 l -0.24487,0.24487 v 0.48975 z m -1.95897,-9.25617 h 1.95897 l -0.48974,-0.78359 v -0.48975 l 0.24487,-1.22436 h -0.24487 l -0.24487,0.24488 -2.98744,1.22436 v 0.24487 z m 5.38719,17.92464 v -0.53871 h -0.48975 l -0.53872,0.53871 z m 7.54206,7.15027 0.48974,-0.48974 v -0.24487 l -0.24487,-0.24488 -0.53872,0.48975 v 0.48974 z m 8.66847,30.02133 -0.19589,0.1959 h 0.19589 v 11.80284 h -5.14231 l -25.61363,-70.22934 h 15.18207 l 15.57387,42.70571 z m -9.35411,-8.52155 v -1.02846 l -0.48975,0.48974 v 0.53872 z m 1.5182,-1.51821 0.24488,-0.73461 v -0.24488 h -0.78359 v 0.97949 z m 4.6036,11.70489 q 0.34282,1.22437 0.73462,1.22437 0,-1.37129 1.27333,-2.25283 v -0.97949 l -2.49769,1.76308 v 0.24487 z m -5.63206,-14.69233 q 0,-0.48974 0.78359,-0.48974 v -0.24487 h -0.53872 v -0.29385 l 0.24488,-1.22436 q 1.5182,-0.48975 1.5182,-0.97949 v -0.29385 l -0.97949,0.29385 h -0.24487 l -0.29384,-0.29385 q 0,-0.97949 -0.48975,-0.97949 v -1.46923 h -0.24487 l -0.24487,1.22436 -1.22436,-0.24487 h -0.24488 l -0.53872,0.48974 v 0.24488 l 0.53872,1.27333 h 0.73462 l 1.22436,0.24487 v 0.48975 l -0.73462,0.73462 0.24488,1.5182 z m 7.68899,7.44412 h 0.24487 v -0.48975 q -1.76308,-0.48974 -1.76308,-1.46923 h -0.73462 v 0.97949 l 0.73462,-0.24487 z m 0.48974,-2.74257 q 0,-0.34282 -0.97949,-0.73462 v 0.48975 z m -6.41565,-11.21515 0.24487,-0.73461 h -0.24487 l -0.24487,-0.24488 h -0.73462 z m 3.18334,9.99079 0.24487,-0.24487 q 0,-0.73462 0.73462,-0.73462 v -0.53872 q -1.71411,0.88154 -1.71411,1.27334 v 0.24487 z m -2.20385,-12.48848 q -1.22436,-0.83257 -1.22436,-1.95898 h -0.48975 q 0,0.97949 -1.02846,0.97949 v 0.24487 q 0,0.48974 2.74257,0.73462 z m 3.67308,10.48053 v -0.24488 l 0.29385,-0.24487 h -1.02846 v 0.24487 z m -2.98744,8.17873 v -1.12641 q -1.91,0 -2.00795,-1.17539 h -0.24487 v 0.29385 q 0,1.12641 2.25282,2.00795 z m 2.6936,9.25617 -0.24488,-1.17539 h -0.78359 l 0.29385,1.17539 z m -9.55002,-33.64544 v -0.48975 q -0.73462,0 -0.73462,-0.53872 h -0.53871 v 0.24488 z m 0.049,6.07283 -0.24487,-1.22436 h -1.27333 v 0.24487 q 1.02846,0 1.02846,0.73461 v 0.48975 l -0.53872,0.78359 v 0.24487 q 0.53872,-0.0979 1.02846,-1.27333 z m -2.54667,-7.1013 -0.48974,-0.48974 h -0.24487 v 0.48974 z m 2.00796,-2.49769 v -0.48975 h -0.78359 l -0.48975,0.48975 z m -2.4977,-0.97949 0.24487,-0.97949 -0.73461,-0.24487 -0.53872,0.73461 z m 5.04437,6.85642 v -0.48974 h -0.78359 v 0.48974 z m 16.60233,17.38593 -0.48974,0.78359 h 0.24487 l 0.73462,-0.29385 z m -1.46923,5.24026 v 0.48975 l 0.24487,0.24487 h 0.48975 v -0.24487 l -0.48975,-0.48975 z m -1.91,10.9213 1.42025,0.58769 0.24488,0.24488 h 0.24487 l -0.24487,-1.22436 v -0.48975 l 0.48974,-0.78359 h -1.95898 l -0.19589,0.0979 v -21.49978 l 15.72079,-43.14648 H 209.766 l -25.56466,70.1314 h -5.33821 z m 4.55462,-19.58978 0.53872,0.53872 h 0.48974 v -0.53872 z m 8.27668,-7.15026 v 0.48974 l 0.53872,0.48975 0.24487,-0.24488 v -0.24487 l -0.48974,-0.48974 z m 6.02385,-28.11133 0.48975,0.53872 q 2.20385,-0.73462 2.4977,-1.51821 l -0.24488,-0.24487 q -1.22436,1.22436 -2.74257,1.22436 z m -6.90539,6.61155 v 0.53872 l 0.48974,0.48974 v -1.02846 z m 1.46923,1.51821 v 0.97948 h 0.78359 v -0.24487 l -0.24487,-0.73461 z m 3.72206,-0.73462 v 0.24487 l 2.4977,1.76308 v -0.97949 q -1.27334,-0.88154 -1.27334,-2.25282 -0.3918,0 -0.73462,1.22436 z m 0.68564,-16.74926 v 0.29385 q 0.78359,0 1.51821,0.97949 h 0.24487 l 0.73462,-0.73462 -0.73462,-1.27334 h -0.2449 q -0.83257,0.73462 -1.51821,0.73462 z m -5.38719,20.47132 -0.24487,1.5182 0.73462,0.73462 v 0.48974 l -1.22436,0.24488 h -0.73462 l -0.53872,1.27333 v 0.24487 l 0.53872,0.48975 h 0.24487 l 1.22436,-0.24487 0.24488,1.22436 h 0.24487 v -1.46924 q 0.48974,0 0.48974,-0.97948 l 0.29385,-0.29385 h 0.24487 l 0.97949,0.29385 v -0.29385 q 0,-0.48975 -1.51821,-0.97949 l -0.24487,-1.22436 v -0.29385 h 0.53872 v -0.24487 q -0.78359,0 -0.78359,-0.48974 z m 5.73001,4.75052 -0.73461,-0.24488 v 0.97949 h 0.73461 q 0,-0.97949 1.76308,-1.46923 v -0.48974 h -0.24487 z m 1.02847,1.76308 v 0.48974 q 0.97948,-0.39179 0.97948,-0.73462 z m -5.48514,0.97949 h 0.73462 l 0.24487,-0.24488 h 0.24487 l -0.24487,-0.73461 z m 2.4977,0 v 0.24487 q 0,0.39179 1.7141,1.27333 v -0.53872 q -0.73462,0 -0.73462,-0.73461 l -0.24487,-0.24487 z m -3.28129,2.25282 v 0.24487 q 1.02846,0 1.02846,0.97949 h 0.48975 q 0,-1.12641 1.22436,-1.95898 -2.74257,0.24488 -2.74257,0.73462 z m 4.75052,0 v 0.24487 h 1.02846 l -0.29385,-0.24487 v -0.24487 z m 6.95437,-28.89492 q 0,0.97949 -0.48975,0.97949 l -0.78359,-0.24487 -0.24487,0.24487 v 0.78359 q 0.78359,0 0.78359,0.73462 h 0.24487 q 0,-1.27334 1.22437,-1.27334 h 0.78359 q -0.48975,-0.88154 -1.51821,-1.22436 z m -10.52951,11.50899 v 0.29385 h 0.24488 q 0.0979,-1.17539 2.00795,-1.17539 v -1.12641 q -2.25283,0.88154 -2.25283,2.00795 z m 7.54207,-5.77898 h 0.48974 l 0.48975,-0.48974 h -0.48975 z m -4.26078,5.48514 -0.29384,1.17538 h 0.78359 l 0.24487,-1.17538 z m 5.73001,-2.4977 v 0.48975 q -0.73462,0 -0.73462,0.48974 h 0.73462 l 0.24487,-0.73462 v -0.24487 z m -2.4977,1.51821 h 0.7836 l 0.48974,-0.53872 h -0.73462 z m -12.39053,24.43824 v 0.24488 h 0.53872 q 0,-0.53872 0.73462,-0.53872 v -0.48975 z m 0.29385,-8.12975 v 0.24487 l 0.53872,0.78359 v 0.48974 q 0,0.73462 -1.02847,0.73462 v 0.24487 h 1.27334 l 0.24487,-1.22436 q -0.48974,-1.17538 -1.02846,-1.27333 z m -2.25283,8.37463 v 0.48974 h 0.24488 l 0.48974,-0.48974 z m 1.46924,2.49769 0.48974,0.48975 h 0.78359 v -0.48975 z m -2.25283,1.46924 0.53872,0.73461 0.73462,-0.24487 -0.24487,-0.97949 z m 5.28924,-7.34617 v 0.48974 h 0.78359 v -0.48974 z" />
    </g>
  </g>
</svg>
