<?xml version="1.0" standalone="no"?>
<!DOCTYPE svg PUBLIC "-//W3C//DTD SVG 20010904//EN"
 "http://www.w3.org/TR/2001/REC-SVG-20010904/DTD/svg10.dtd">
<svg version="1.0" xmlns="http://www.w3.org/2000/svg"
 width="472.000000pt" height="472.000000pt" viewBox="0 0 472.000000 472.000000"
 preserveAspectRatio="xMidYMid meet">
<metadata>
Created by potrace 1.11, written by Peter Selinger 2001-2013
</metadata>
<g transform="translate(0.000000,472.000000) scale(0.100000,-0.100000)"
fill="#000000" stroke="none">
<path d="M7 3683 c-4 -3 -7 -351 -7 -772 1 -621 3 -769 14 -784 14 -18 10 -67
-5 -67 -14 0 -11 -76 3 -87 7 -6 21 -9 30 -8 14 3 18 -4 18 -29 0 -17 6 -41
14 -52 8 -11 16 -31 18 -44 2 -19 9 -25 29 -25 26 0 79 -23 79 -34 0 -10 -124
-4 -151 7 -19 8 -30 7 -38 -1 -14 -14 -16 -367 -2 -367 5 0 11 12 14 28 l4 27
13 -32 c8 -17 27 -38 44 -47 26 -14 27 -16 6 -10 -14 3 -38 7 -55 8 -28 1 -30
-2 -33 -36 -2 -27 3 -43 18 -58 l21 -21 -21 -28 c-21 -31 -28 -105 -10 -116
14 -8 13 -48 -2 -63 -15 -15 7 -42 33 -42 21 0 26 16 7 23 -7 3 2 6 20 6 20 1
31 -3 30 -11 -2 -9 15 -14 54 -16 57 -3 58 -2 58 24 l0 26 34 -26 c38 -29 83
-34 92 -11 8 20 60 20 68 0 7 -18 82 -21 88 -4 3 9 9 9 25 0 28 -14 70 -14 79
1 11 17 12 78 1 85 -5 3 -17 -4 -28 -16 -21 -23 -64 -29 -56 -8 2 6 -7 28 -21
47 -25 34 -14 31 27 -8 11 -11 17 -11 33 0 11 7 19 16 19 21 -1 4 -1 18 -1 31
0 18 -8 27 -32 35 -17 6 -28 14 -25 17 12 12 67 -18 67 -37 0 -21 16 -34 22
-16 3 10 3 189 -1 240 0 10 -5 15 -11 12 -22 -14 -29 7 -8 24 22 18 22 24 22
226 1 169 -2 209 -13 213 -8 3 -11 0 -8 -5 9 -14 -9 -35 -26 -31 -13 2 -10 11
16 40 29 33 32 44 31 94 -1 53 -4 60 -34 86 -30 25 -32 33 -7 29 4 -1 6 11 3
26 -2 16 -5 31 -5 36 -1 4 -17 7 -36 7 -33 0 -35 -2 -35 -35 0 -26 4 -35 16
-35 13 0 14 -3 5 -14 -11 -13 -15 -12 -32 5 -10 10 -26 19 -34 19 -8 0 -15 5
-15 10 0 6 -13 10 -29 10 -33 0 -44 10 -31 29 5 9 13 10 21 5 37 -23 79 -12
79 22 0 13 5 24 11 24 7 0 17 7 24 16 9 13 16 14 33 5 11 -6 31 -11 44 -11
l23 0 0 584 c0 322 -4 588 -8 592 -4 4 -26 -3 -50 -15 -36 -19 -39 -20 -20 -3
l22 19 -25 36 c-44 65 -26 80 20 17 26 -35 32 -38 45 -26 13 12 16 36 15 118
0 57 -4 109 -8 116 -5 9 -81 12 -295 12 -158 0 -291 -3 -294 -7z m193 -32 c0
-5 -7 -12 -16 -15 -14 -5 -15 -4 -4 9 14 17 20 19 20 6z m115 -99 c-8 -8 -25
10 -19 20 4 6 9 5 15 -3 4 -7 6 -15 4 -17z m108 -106 c-4 -5 -5 -26 -5 -47 l2
-38 -53 24 c-28 14 -58 25 -65 25 -21 0 -3 19 30 33 36 15 99 17 91 3z m47
-96 c0 -5 -4 -10 -9 -10 -6 0 -13 5 -16 10 -3 6 1 10 9 10 9 0 16 -4 16 -10z
m-403 -36 c-9 -9 -28 6 -21 18 4 6 10 6 17 -1 6 -6 8 -13 4 -17z m483 -759 c4
-32 1 -45 -10 -45 -5 0 -10 21 -10 48 1 46 15 44 20 -3z m34 -226 c-10 -16
-36 -10 -30 7 3 9 6 21 6 27 0 7 7 3 15 -7 8 -10 12 -23 9 -27z m-490 -42 c-9
-24 -23 -11 -17 14 3 12 9 17 15 11 5 -5 6 -16 2 -25z m376 14 c0 -12 -88 -57
-96 -48 -4 4 -5 8 -3 10 22 13 86 45 92 46 4 1 7 -3 7 -8z m-263 -51 c1 -11
-2 -18 -8 -15 -11 7 -12 35 -1 35 4 0 8 -9 9 -20z m-117 -51 c0 -16 -26 -10
-45 11 -18 20 -18 20 13 9 18 -6 32 -15 32 -20z m180 -10 c0 -11 -5 -19 -12
-17 -17 6 -19 38 -2 38 8 0 14 -9 14 -21z m92 -136 c35 -38 11 -46 -36 -12
l-43 30 21 24 21 24 8 -22 c5 -12 17 -32 29 -44z m-238 22 c15 -23 15 -27 1
-41 -13 -14 -18 -13 -41 5 -31 24 -31 30 -2 46 13 7 24 13 24 14 1 1 9 -10 18
-24z m115 -5 c-16 -10 6 -54 35 -69 30 -16 34 -33 9 -30 -10 1 -23 1 -29 0
-12 -1 -29 -55 -26 -84 1 -10 -3 -15 -8 -12 -6 3 -10 15 -10 25 0 16 -5 18
-34 13 -25 -4 -35 -1 -39 12 -7 16 7 54 21 56 18 2 45 8 59 13 14 6 14 8 -1
24 -16 18 -22 63 -10 75 3 3 14 1 25 -6 10 -6 14 -14 8 -17z m349 -32 c-5 -15
-58 -24 -58 -9 0 9 20 17 48 20 8 0 12 -5 10 -11z m-98 -88 c0 -5 -7 -10 -15
-10 -8 0 -26 -12 -39 -27 -19 -20 -29 -24 -37 -16 -8 8 -2 16 25 28 20 10 39
21 42 26 7 12 24 11 24 -1z m0 -100 c-20 -13 -33 -13 -25 0 3 6 14 10 23 10
15 0 15 -2 2 -10z m-200 -30 c-20 -12 -32 -2 -17 15 8 8 16 10 22 4 6 -7 5
-13 -5 -19z m113 -35 c23 -32 6 -32 -30 0 -25 22 -26 24 -8 24 11 0 28 -11 38
-24z m-91 -44 c-6 -4 -16 -19 -22 -35 l-10 -28 -26 27 c-14 15 -24 29 -22 30
2 2 19 7 38 13 35 9 61 5 42 -7z m123 -11 c3 -5 -1 -10 -10 -10 -9 0 -13 5
-10 10 3 6 8 10 10 10 2 0 7 -4 10 -10z m-290 -38 c4 -10 0 -13 -13 -10 -24 7
-52 -8 -52 -28 0 -12 -3 -12 -20 -2 -28 18 -27 52 1 43 15 -5 22 -2 26 13 4
18 8 19 28 10 13 -6 26 -17 30 -26z m363 -49 c-2 -10 -14 -19 -28 -21 -14 -2
-33 -11 -42 -19 -15 -13 -16 -13 -12 5 3 10 20 26 37 35 42 21 49 21 45 0z
m-308 -3 c0 -5 -5 -10 -11 -10 -5 0 -7 5 -4 10 3 6 8 10 11 10 2 0 4 -4 4 -10z
m373 -50 c-6 -22 -33 -28 -33 -7 0 17 10 27 26 27 7 0 10 -8 7 -20z m-347
-105 c-3 -9 -10 -13 -16 -10 -6 4 -5 11 3 20 15 16 22 11 13 -10z m-56 -14 c0
-5 -7 -11 -15 -15 -15 -5 -20 5 -8 17 9 10 23 9 23 -2z m104 -186 c-10 -8 -26
-14 -34 -14 -9 0 -4 6 10 14 33 19 49 19 24 0z m93 -3 c6 -10 9 -30 6 -45 -4
-22 -11 -27 -32 -26 -16 1 -19 3 -9 6 23 6 32 37 18 63 -13 25 1 27 17 2z
m-187 -22 c0 -5 -5 -10 -11 -10 -5 0 -7 5 -4 10 3 6 8 10 11 10 2 0 4 -4 4
-10z m85 -100 c-3 -5 -12 -10 -20 -10 -8 0 -17 5 -20 10 -4 6 5 10 20 10 15 0
24 -4 20 -10z m-89 -41 c10 -16 -18 -30 -34 -17 -11 9 -11 13 0 19 18 12 26
11 34 -2z m274 -9 c0 -5 -7 -10 -16 -10 -8 0 -12 5 -9 10 3 6 10 10 16 10 5 0
9 -4 9 -10z"/>
<path d="M747 3678 c-14 -8 -20 -452 -6 -478 6 -13 45 -15 276 -15 186 1 286
-3 326 -12 60 -13 138 -59 160 -94 15 -24 27 -25 27 -1 0 13 2 14 9 4 4 -7 6
-24 3 -38 -2 -14 0 -24 7 -24 8 0 10 -19 5 -62 -9 -92 -21 -133 -58 -191 -18
-29 -50 -83 -72 -120 -21 -38 -47 -83 -57 -100 -11 -17 -21 -40 -23 -50 -2
-11 -10 -24 -18 -31 -8 -6 -33 -42 -56 -81 -23 -38 -83 -128 -132 -200 -126
-183 -408 -598 -408 -600 0 -1 125 -1 278 -2 l277 0 96 146 c53 80 192 295
309 476 117 182 242 375 278 430 36 55 76 111 88 124 13 13 24 29 24 36 0 6
11 22 25 35 14 13 25 31 25 40 0 9 3 20 7 23 12 13 10 92 -4 108 -12 14 -12
17 0 22 35 13 -5 187 -71 307 -35 64 -142 181 -194 213 -105 65 -205 101 -336
123 -74 13 -177 17 -435 18 -186 1 -343 -2 -350 -6z m233 -36 c0 -4 -9 -8 -20
-9 -14 -1 -20 4 -20 18 0 17 3 18 20 9 11 -6 20 -14 20 -18z m340 -46 c0 -2
-9 -6 -20 -9 -11 -3 -20 -1 -20 4 0 5 9 9 20 9 11 0 20 -2 20 -4z m-60 -43 c0
-19 -13 -9 -16 12 -1 8 2 13 7 9 5 -3 9 -12 9 -21z m-438 -41 c-19 -6 -44 6
-37 18 4 7 14 6 28 -2 14 -7 17 -13 9 -16z m637 -3 c-16 -10 -23 -4 -14 10 3
6 11 8 17 5 6 -4 5 -9 -3 -15z m-174 -20 c4 -6 22 -8 41 -6 47 7 51 -7 7 -21
-40 -12 -48 -10 -63 19 -11 20 3 28 15 8z m345 -60 c0 -11 -4 -17 -10 -14 -5
3 -10 13 -10 21 0 8 5 14 10 14 6 0 10 -9 10 -21z m-53 -85 c2 -5 -13 -10 -32
-11 -39 -2 -48 13 -12 20 28 5 40 3 44 -9z m123 -90 c0 -14 -12 -19 -23 -8 -9
9 4 35 14 28 5 -3 9 -12 9 -20z m-107 -11 c34 -7 44 -21 20 -30 -10 -3 -25
-15 -34 -26 -16 -19 -17 -18 -32 28 -15 44 -15 47 1 40 9 -3 29 -9 45 -12z
m-263 -9 c0 -8 -4 -12 -10 -9 -5 3 -10 10 -10 16 0 5 5 9 10 9 6 0 10 -7 10
-16z m542 -60 c15 -33 0 -45 -21 -14 -9 13 -24 33 -33 42 -26 26 -22 31 12 13
17 -9 36 -27 42 -41z m196 16 c3 -9 -1 -11 -12 -7 -10 4 -22 7 -27 7 -6 0 -8
4 -5 9 8 13 39 7 44 -9z m-448 -55 c0 -23 -18 -27 -29 -7 -6 11 -8 22 -5 25
10 9 34 -4 34 -18z m208 -35 c18 -11 36 -30 41 -43 8 -20 4 -23 -38 -34 -71
-19 -72 -19 -56 28 11 31 12 45 4 55 -18 21 10 18 49 -6z m-162 -38 c-6 -40
-5 -39 -31 -44 -16 -2 -20 3 -21 27 -1 45 5 55 33 53 22 -2 24 -6 19 -36z
m264 -49 c0 -30 -9 -27 -15 6 -2 11 0 21 6 21 5 0 9 -12 9 -27z m104 -25 c-9
-14 -23 2 -17 18 4 12 8 13 14 3 4 -7 5 -17 3 -21z m-91 -29 c4 -14 11 -20 20
-16 15 5 52 -25 43 -34 -3 -3 -22 -3 -43 -1 -36 3 -38 6 -39 38 0 38 11 45 19
13z m-343 -59 c-20 -13 -33 -13 -25 0 3 6 14 10 23 10 15 0 15 -2 2 -10z m30
-45 c0 -14 -4 -25 -10 -25 -5 0 -10 11 -10 25 0 14 5 25 10 25 6 0 10 -11 10
-25z m202 -17 c-9 -9 -15 -9 -24 0 -9 9 -7 12 12 12 19 0 21 -3 12 -12z m78
-51 c0 -42 -1 -42 -35 -43 -38 0 -47 11 -14 19 11 3 19 11 18 19 -3 18 11 48
22 48 5 0 9 -19 9 -43z m-90 -47 c-19 -13 -30 -13 -30 0 0 6 10 10 23 10 18 0
19 -2 7 -10z m-3 -156 c-2 -2 -20 1 -41 7 -21 6 -44 8 -52 5 -19 -7 -18 19 2
50 12 17 23 23 38 19 11 -2 15 -2 8 1 -10 5 -10 9 0 21 11 14 15 7 30 -42 10
-32 17 -60 15 -61z m-137 99 c0 -5 -19 -23 -41 -42 -39 -32 -41 -33 -34 -10 4
13 16 32 27 42 21 17 48 23 48 10z m-90 -182 c0 -10 -30 -24 -37 -17 -3 3 -2
9 2 15 8 13 35 15 35 2z m218 -38 c20 -27 14 -33 -33 -33 -47 0 -48 1 -39 38
6 19 11 22 33 17 14 -3 32 -13 39 -22z m-151 -78 c14 -5 8 -11 -27 -24 -46
-18 -70 -17 -51 2 6 6 11 23 11 38 0 35 21 43 37 14 7 -13 20 -26 30 -30z
m-242 35 c-3 -5 -13 -10 -21 -10 -8 0 -14 5 -14 10 0 6 9 10 21 10 11 0 17 -4
14 -10z m303 -2 c-7 -19 -35 -21 -35 -3 0 8 9 15 20 15 10 0 17 -5 15 -12z
m-220 -45 c-1 -10 2 -28 6 -40 8 -26 -8 -32 -18 -7 -9 24 -7 64 3 64 6 0 9 -8
9 -17z m-188 -93 c0 -5 -5 -10 -11 -10 -5 0 -7 5 -4 10 3 6 8 10 11 10 2 0 4
-4 4 -10z m20 -25 c0 -8 -4 -15 -10 -15 -5 0 -7 7 -4 15 4 8 8 15 10 15 2 0 4
-7 4 -15z m50 -121 c11 -32 10 -38 -9 -57 -16 -17 -21 -18 -21 -6 0 8 5 20 12
27 9 9 7 12 -12 13 -15 1 -19 3 -9 6 10 2 17 14 17 28 0 14 -5 22 -11 18 -6
-3 -7 -1 -3 6 11 17 23 5 36 -35z m240 -3 c0 -17 -18 -21 -24 -6 -3 9 0 15 9
15 8 0 15 -4 15 -9z m-350 -31 c8 -5 11 -13 6 -17 -5 -4 -11 -2 -13 5 -3 6 -9
10 -14 6 -5 -3 -9 0 -9 5 0 13 10 14 30 1z m30 -50 c0 -5 -7 -10 -16 -10 -8 0
-12 5 -9 10 3 6 10 10 16 10 5 0 9 -4 9 -10z m-153 -206 c-3 -3 -12 -4 -19 -1
-8 3 -5 6 6 6 11 1 17 -2 13 -5z m-29 -181 c-2 -15 -7 -22 -16 -18 -8 3 -32 8
-55 12 -41 6 -42 7 -16 17 15 6 40 11 58 11 26 1 30 -3 29 -22z"/>
<path d="M2280 3677 c0 -4 15 -49 34 -100 19 -51 64 -173 99 -272 97 -266 165
-454 187 -510 10 -27 46 -126 80 -220 34 -93 86 -235 115 -315 29 -80 99 -271
155 -425 117 -321 193 -528 220 -600 10 -27 31 -85 46 -128 l27 -77 97 0 98 0
0 518 0 517 -33 95 c-18 52 -108 300 -200 550 -171 468 -205 560 -295 810 -29
80 -57 149 -62 155 -11 12 -568 14 -568 2z m400 -45 c-4 -16 -4 -36 2 -45 9
-17 3 -20 -44 -20 -23 0 -78 23 -78 33 0 6 104 57 122 59 4 1 3 -12 -2 -27z
m21 -409 c-8 -15 -10 -15 -11 -2 0 17 10 32 18 25 2 -3 -1 -13 -7 -23z m53
-194 c-6 -11 -24 -2 -24 11 0 5 7 7 15 4 8 -4 12 -10 9 -15z m71 -129 c3 -5
-3 -10 -15 -10 -12 0 -18 5 -15 10 3 6 10 10 15 10 5 0 12 -4 15 -10z m41
-161 c9 -16 -10 -31 -30 -23 -13 5 -14 9 -5 20 14 17 25 18 35 3z m89 -59 c4
-6 -6 -10 -22 -10 -22 0 -25 2 -13 10 19 12 27 12 35 0z m175 -39 c0 -12 -20
-25 -27 -18 -7 7 6 27 18 27 5 0 9 -4 9 -9z m-260 -61 c0 -5 -4 -10 -10 -10
-5 0 -10 5 -10 10 0 6 5 10 10 10 6 0 10 -4 10 -10z m87 -25 c23 -24 12 -26
-16 -4 -13 10 -18 19 -11 19 6 0 18 -7 27 -15z m93 -103 c0 -5 -7 -9 -15 -9
-8 0 -15 4 -15 9 0 4 7 8 15 8 8 0 15 -4 15 -8z m115 -82 c3 -11 13 -27 21
-35 19 -18 6 -20 -49 -4 l-39 10 24 24 c29 29 35 30 43 5z m-193 -44 c3 -14
-3 -34 -13 -47 -10 -13 -19 -19 -19 -12 0 6 5 15 10 18 16 10 7 39 -15 52 -19
12 -19 12 6 13 20 0 28 -6 31 -24z m198 -82 c0 -14 -3 -14 -15 -4 -8 7 -15 14
-15 16 0 2 7 4 15 4 8 0 15 -7 15 -16z m-65 -71 c1 -10 7 -31 13 -47 10 -23
17 -27 37 -22 34 9 32 -10 -4 -28 -31 -16 -48 -65 -28 -78 9 -6 9 -8 0 -8 -6
0 -18 -3 -26 -6 -21 -8 -27 47 -8 62 23 18 6 44 -29 44 -23 0 -33 6 -42 25
-15 34 4 56 43 48 25 -5 29 -3 29 17 0 26 12 20 15 -7z m245 -237 c0 -11 -19
-15 -25 -6 -3 5 1 10 9 10 9 0 16 -2 16 -4z m-202 -53 c-4 -22 -22 -20 -26 1
-2 10 3 16 13 16 10 0 15 -7 13 -17z m162 -13 c-11 -11 -28 -20 -37 -20 -14 1
-11 6 11 25 35 28 55 24 26 -5z m-225 -51 c-10 -15 -25 -10 -19 6 4 8 10 12
15 9 5 -3 7 -10 4 -15z m320 -9 c8 -13 -5 -13 -25 0 -13 8 -13 10 2 10 9 0 20
-4 23 -10z m-65 -54 c0 -8 14 -20 30 -28 17 -7 30 -16 30 -20 0 -13 -10 -9
-37 12 -14 11 -32 20 -39 20 -8 0 -14 7 -14 15 0 8 7 15 15 15 8 0 15 -6 15
-14z m-166 -88 c6 -4 21 -8 34 -8 15 0 22 -6 22 -20 0 -25 -7 -25 -47 0 -22
13 -33 27 -32 42 0 15 2 18 6 8 3 -8 11 -18 17 -22z m216 -191 c0 -7 -11 -28
-25 -47 -13 -18 -22 -37 -19 -41 3 -5 0 -9 -5 -9 -6 0 -11 4 -11 9 0 5 -7 17
-16 26 -15 15 -15 17 2 30 11 7 28 20 39 29 25 19 35 20 35 3z m-62 -195 c3
-16 -1 -20 -12 -16 -19 7 -22 48 -3 42 6 -3 13 -14 15 -26z"/>
<path d="M4146 3672 c-2 -4 -18 -43 -34 -87 -29 -76 -52 -139 -227 -620 -42
-115 -94 -257 -115 -315 -36 -99 -90 -246 -166 -455 -17 -49 -37 -103 -43
-118 -7 -19 -11 -163 -11 -433 l0 -404 40 0 c37 0 40 -2 30 -20 -6 -11 -8 -31
-4 -45 6 -25 -8 -35 -21 -15 -3 6 -15 10 -26 10 -17 0 -19 -7 -19 -70 l0 -70
100 0 c95 0 101 1 110 23 10 23 142 382 230 627 29 80 84 231 122 335 39 105
88 240 110 300 22 61 43 119 48 130 5 11 41 110 81 220 39 110 100 277 134
370 34 94 97 267 140 385 42 118 81 223 86 232 5 10 9 20 9 23 0 8 -569 5
-574 -3z m162 -66 c9 -20 7 -27 -8 -41 -15 -14 -20 -14 -27 -2 -4 7 -17 18
-27 24 -18 10 -17 12 10 26 38 21 39 21 52 -7z m212 -76 c23 -18 24 -20 5 -21
-11 -1 -23 -1 -27 0 -4 0 -15 -10 -24 -23 -14 -23 -16 -24 -33 -8 -24 24 -16
55 11 41 16 -9 20 -7 25 10 7 26 11 26 43 1z m-120 -180 c0 -5 -5 -10 -11 -10
-5 0 -7 5 -4 10 3 6 8 10 11 10 2 0 4 -4 4 -10z m-29 -74 c-20 -24 -82 -49
-93 -38 -7 7 0 12 20 17 17 3 36 13 43 21 6 8 18 14 26 14 12 0 13 -3 4 -14z
m59 -71 c0 -8 -7 -15 -15 -15 -13 0 -14 3 -3 15 16 18 18 18 18 0z m-260 -34
c0 -13 -10 -21 -34 -25 -19 -4 -37 -14 -40 -23 -4 -9 -9 -13 -12 -10 -10 10
16 46 44 61 36 20 42 20 42 -3z m200 9 c-20 -13 -33 -13 -25 0 3 6 14 10 23
10 15 0 15 -2 2 -10z m-137 -70 c-6 -24 -19 -34 -27 -21 -9 14 4 41 19 41 8 0
11 -8 8 -20z m17 -114 c0 -8 11 -27 24 -43 38 -45 18 -59 -32 -22 -37 27 -40
32 -27 46 8 8 15 19 15 24 0 5 5 9 10 9 6 0 10 -6 10 -14z m-230 -12 c0 -8 -4
-12 -10 -9 -5 3 -10 10 -10 16 0 5 5 9 10 9 6 0 10 -7 10 -16z m67 -61 c2 -6
-3 -13 -12 -16 -10 -5 -15 0 -15 14 0 21 21 22 27 2z m-34 -107 c12 -10 14
-15 6 -18 -16 -5 -3 -58 15 -58 7 0 21 -10 32 -21 19 -22 19 -22 -8 -15 -23 5
-29 2 -42 -26 -9 -17 -16 -43 -17 -57 l-1 -26 -10 28 c-9 25 -14 27 -39 22
-22 -5 -31 -2 -35 10 -8 21 12 66 28 64 53 -7 75 14 44 40 -8 7 -13 20 -11 29
2 9 4 23 4 30 1 15 11 15 34 -2z m253 -135 c-3 -5 -15 -11 -26 -14 -17 -4 -19
-3 -9 9 12 15 44 20 35 5z m-56 -31 c-1 -15 -19 -32 -29 -26 -18 12 -12 32 9
32 11 0 20 -3 20 -6z m55 -70 c-3 -5 -11 -10 -16 -10 -6 0 -7 5 -4 10 3 6 11
10 16 10 6 0 7 -4 4 -10z m-199 -25 c-3 -9 -11 -13 -16 -10 -8 5 -7 11 1 21
14 18 24 11 15 -11z m-196 -60 c0 -30 -26 -53 -42 -37 -9 9 -8 12 4 12 24 0
27 21 10 55 l-15 30 22 -19 c11 -11 21 -29 21 -41z m296 29 c32 -33 30 -38 -6
-19 -16 9 -30 22 -30 30 0 21 9 19 36 -11z m-76 -43 c0 -6 -5 -13 -11 -16 -5
-4 -15 -19 -21 -33 l-10 -27 -11 23 c-5 12 -16 22 -24 22 -26 0 -13 20 20 29
43 12 57 13 57 2z m120 -21 c0 -5 -7 -10 -16 -10 -8 0 -12 5 -9 10 3 6 10 10
16 10 5 0 9 -4 9 -10z m-265 -110 c-3 -5 -10 -10 -16 -10 -5 0 -9 5 -9 10 0 6
7 10 16 10 8 0 12 -4 9 -10z m-90 -100 c-10 -11 -21 -17 -24 -14 -3 3 3 12 13
20 28 20 32 17 11 -6z m-90 -20 c3 -5 1 -10 -4 -10 -6 0 -11 5 -11 10 0 6 2
10 4 10 3 0 8 -4 11 -10z m259 -71 c-8 -13 -24 -1 -24 18 0 13 3 13 15 3 8 -7
12 -16 9 -21z m-174 -29 c0 -5 -6 -10 -14 -10 -8 0 -18 5 -21 10 -3 6 3 10 14
10 12 0 21 -4 21 -10z m-87 -50 c4 -15 0 -20 -13 -20 -21 0 -34 26 -17 34 21
8 25 6 30 -14z m-43 -170 c0 -5 -4 -10 -9 -10 -6 0 -13 5 -16 10 -3 6 1 10 9
10 9 0 16 -4 16 -10z m-70 -140 c0 -5 -7 -10 -16 -10 -8 0 -12 5 -9 10 3 6 10
10 16 10 5 0 9 -4 9 -10z m-42 -198 c6 -18 -15 -14 -22 4 -4 10 -1 14 6 12 6
-2 14 -10 16 -16z"/>
<path d="M577 2213 c-6 -12 14 -96 21 -89 12 12 8 96 -4 96 -7 0 -15 -3 -17
-7z"/>
<path d="M6 1924 c-9 -25 -7 -94 3 -94 5 0 12 9 16 19 3 11 12 22 20 24 18 7
8 45 -15 57 -13 7 -20 6 -24 -6z"/>
<path d="M742 1508 c-16 -16 -15 -33 4 -49 13 -10 13 -14 1 -20 -11 -7 -13
-45 -13 -196 1 -103 5 -194 9 -200 11 -17 388 -18 419 -2 14 8 23 8 31 0 7 -7
108 -11 313 -11 278 0 302 1 309 18 6 16 7 16 16 0 9 -16 27 -18 142 -18 73 0
138 4 144 8 10 6 13 66 14 235 0 124 -2 231 -6 237 -4 6 -77 10 -202 10 -165
0 -194 -2 -190 -14 4 -10 0 -14 -14 -13 -10 1 -19 7 -19 14 0 10 -32 13 -136
13 -130 0 -136 -1 -131 -19 8 -30 -22 -35 -33 -6 l-9 24 -171 0 -170 1 0 -23
c0 -23 -17 -47 -32 -47 -12 0 -10 38 2 45 28 17 -13 25 -134 25 -89 0 -136 -4
-144 -12z m123 -118 c-5 -8 -11 -8 -21 1 -12 10 -12 14 -2 20 16 10 33 -5 23
-21z m838 -39 c-21 -36 -73 -46 -73 -12 0 14 6 17 24 14 15 -3 31 2 43 14 25
27 27 22 6 -16z m-498 -24 c-20 -11 -29 -3 -21 19 5 13 9 14 22 3 14 -11 14
-13 -1 -22z m-231 -28 c-3 -5 -10 -7 -15 -3 -5 3 -7 10 -3 15 3 5 10 7 15 3 5
-3 7 -10 3 -15z m628 -21 c-7 -7 -12 -8 -12 -2 0 6 3 14 7 17 3 4 9 5 12 2 2
-3 -1 -11 -7 -17z m-728 -62 c40 -37 47 -66 16 -66 -15 0 -20 7 -20 28 0 32
-16 52 -42 52 -10 0 -18 5 -18 10 0 20 29 9 64 -24z m316 -76 c-8 -5 -17 -7
-19 -4 -3 3 1 9 9 14 8 5 17 7 19 4 3 -3 -1 -9 -9 -14z m-310 -15 c-7 -8 -16
-12 -21 -9 -16 9 -10 20 12 21 17 2 18 -1 9 -12z m553 -27 c-26 -28 -35 -21
-17 13 12 24 18 29 25 18 5 -8 2 -20 -8 -31z m-493 -20 c0 -16 -3 -19 -11 -11
-6 6 -8 16 -5 22 11 17 16 13 16 -11z m650 -14 c0 -8 -4 -12 -10 -9 -5 3 -10
10 -10 16 0 5 5 9 10 9 6 0 10 -7 10 -16z"/>
</g>
</svg>
